<?xml version="1.0" encoding="UTF-8" standalone="no"?>
<!-- Created with Inkscape (http://www.inkscape.org/) -->
<svg
   xmlns:svg="http://www.w3.org/2000/svg"
   xmlns="http://www.w3.org/2000/svg"
   version="1.0"
   width="300"
   height="300"
   id="svg2">
  <defs
     id="defs4" />
  <g
     transform="translate(-47.65567,-448.12244)"
     id="layer1">
    <rect
       width="300"
       height="300"
       x="47.65567"
       y="448.12244"
       id="rect2391"
       style="opacity:1;fill:#000000;fill-opacity:1;fill-rule:evenodd;stroke:none;stroke-width:0.1;stroke-linecap:butt;stroke-linejoin:miter;marker:none;marker-start:none;marker-mid:none;marker-end:none;stroke-miterlimit:4;stroke-dasharray:none;stroke-dashoffset:0;stroke-opacity:1;visibility:visible;display:inline;overflow:visible;enable-background:accumulate" />
    <path
       d="M 204.875,268.0625 L 203.60938,270.875 C 200.79681,271.0626 197.84369,274.29697 194.75,280.57812 L 194.1875,281 L 194.46875,281.5625 L 194.89062,281.84375 L 195.45312,281.98438 C 195.92181,281.79696 199.71868,280.81259 206.84375,279.03125 C 209.09368,278.00009 212.6093,276.68759 217.39062,275.09375 C 220.39054,274.34384 222.26554,273.82822 223.01562,273.54688 C 224.89053,272.89072 226.57803,272.0001 228.07812,270.875 C 227.70303,270.78135 229.76553,270.73447 234.26562,270.73438 C 237.45302,270.73447 239.56239,271.67197 240.59375,273.54688 L 241.01562,276.5 C 238.85927,277.81259 235.48427,278.65634 230.89062,279.03125 C 225.17178,279.59384 221.46866,280.06259 219.78125,280.4375 C 214.99992,282.31258 207.7343,284.51571 197.98438,287.04688 L 190.8125,285.78125 C 182.56245,292.06257 175.24996,296.00007 168.875,297.59375 L 163.8125,295.90625 C 170.84371,288.21883 175.10933,283.29696 176.60938,281.14062 C 181.01558,275.32822 183.73433,269.5626 184.76562,263.84375 C 184.20308,263.09385 183.64058,262.29698 183.07812,261.45312 C 182.14058,260.23448 181.7187,259.53136 181.8125,259.34375 L 182.09375,258.5 C 182.37495,258.21886 182.70308,258.07823 183.07812,258.07812 C 183.35933,258.07823 183.85151,258.19542 184.55469,258.42969 C 185.25776,258.66417 185.79682,258.78136 186.17188,258.78125 C 186.73432,258.78136 187.29682,258.59386 187.85938,258.21875 C 196.10931,259.06261 201.78118,262.34385 204.875,268.0625 L 204.875,268.0625 z M 241.01562,289.57812 C 244.29676,289.85945 246.45301,290.1407 247.48438,290.42188 C 249.92176,291.0782 251.65613,292.3907 252.6875,294.35938 L 251.98438,296.89062 C 250.76551,297.35944 249.82801,298.53132 249.17188,300.40625 C 255.35925,302.18756 258.96863,303.31256 260,303.78125 C 263.65612,305.75006 265.67174,308.75006 266.04688,312.78125 L 263.51562,316.85938 L 246.07812,314.04688 C 244.39051,314.79693 243.17177,316.29693 242.42188,318.54688 C 241.29677,322.01567 240.59364,323.98442 240.3125,324.45312 C 243.40614,325.95317 246.54676,327.50004 249.73438,329.09375 C 253.10926,330.96879 254.74988,333.64066 254.65625,337.10938 L 254.65625,337.8125 L 253.39062,340.90625 L 249.17188,341.75 C 247.85926,341.46878 244.39051,340.43753 238.76562,338.65625 C 234.54677,337.43753 230.98428,336.82816 228.07812,336.82812 C 227.42178,336.82816 226.43741,336.75784 225.125,336.61719 C 223.81241,336.47659 222.82804,336.40628 222.17188,336.40625 C 217.20304,336.40628 208.95305,337.76565 197.42188,340.48438 C 189.82807,342.26565 184.76557,343.57815 182.23438,344.42188 C 176.32808,346.39065 171.82809,348.82814 168.73438,351.73438 L 162.82812,345.40625 L 163.67188,343.4375 L 163.10938,341.46875 L 167.46875,342.73438 C 168.87497,341.9844 170.9609,341.16409 173.72656,340.27344 C 176.49215,339.38284 178.43746,338.70315 179.5625,338.23438 L 174.35938,330.5 L 173.09375,323.60938 C 168.96872,324.45317 165.92184,325.39067 163.95312,326.42188 C 161.23435,327.82816 158.98435,330.03129 157.20312,333.03125 L 154.67188,333.59375 C 152.79686,332.93753 150.96873,331.15629 149.1875,328.25 C 147.40624,325.34379 145.67186,323.60942 143.98438,323.04688 L 143.5625,321.07812 L 146.09375,319.39062 L 149.89062,320.51562 L 173.23438,313.48438 L 172.67188,306.59375 L 170,302.09375 C 171.78121,301.81257 172.67184,301.67194 172.67188,301.67188 C 175.39058,301.67194 177.85152,302.56256 180.05469,304.34375 C 182.25776,306.12506 183.35933,308.37506 183.35938,311.09375 C 185.70307,310.43756 189.17182,309.31256 193.76562,307.71875 L 193.0625,298.15625 L 189.82812,294.21875 C 196.57806,295.15632 200.74993,297.78132 202.34375,302.09375 C 201.49993,302.56256 201.07806,303.35944 201.07812,304.48438 C 201.07806,305.23444 201.31243,305.84381 201.78125,306.3125 C 202.53118,305.84381 204.52337,305.28131 207.75781,304.625 C 210.99211,303.96881 213.1718,303.40631 214.29688,302.9375 L 215,295.625 L 211.20312,292.39062 L 215,291.6875 C 216.96867,292.15632 218.93742,292.62507 220.90625,293.09375 C 223.53116,293.75007 224.79678,295.29695 224.70312,297.73438 L 224.70312,298.01562 C 222.92179,298.67194 222.03116,299.51569 222.03125,300.54688 L 222.17188,301.39062 C 223.10929,301.67194 224.09366,301.81257 225.125,301.8125 C 225.96866,301.81257 227.89053,301.62507 230.89062,301.25 C 233.23428,301.06257 235.15615,301.06257 236.65625,301.25 C 237.4999,299.75007 237.92177,297.64069 237.92188,294.92188 L 235.25,292.10938 L 241.01562,289.57812 z M 220.20312,311.09375 C 218.70304,313.1563 217.95304,317.32817 217.95312,323.60938 C 217.39054,324.45317 217.10929,325.29692 217.10938,326.14062 C 217.10929,326.89067 217.48429,327.59379 218.23438,328.25 L 230.1875,325.57812 C 230.9374,323.89067 231.64053,321.61723 232.29688,318.75781 C 232.95303,315.89849 233.51553,313.9063 233.98438,312.78125 C 232.10928,311.56256 229.29678,310.95318 225.54688,310.95312 C 224.98428,310.95318 224.09366,311.00006 222.875,311.09375 C 221.74991,311.09381 220.85929,311.09381 220.20312,311.09375 L 220.20312,311.09375 z M 201.21875,314.04688 C 200.65618,319.20317 200.37493,321.7813 200.375,321.78125 C 200.37493,322.06255 200.44525,322.55473 200.58594,323.25781 C 200.7265,323.96098 200.79681,324.45317 200.79688,324.73438 C 200.79681,324.73442 200.46868,327.59379 199.8125,333.3125 L 200.65625,333.3125 C 202.06243,333.40628 203.91399,332.9141 206.21094,331.83594 C 208.50774,330.75785 210.1718,330.17191 211.20312,330.07812 L 210.5,327.26562 L 212.46875,312.35938 C 211.34367,312.07818 210.1718,311.93756 208.95312,311.9375 C 205.8593,311.93756 203.28118,312.64068 201.21875,314.04688 L 201.21875,314.04688 z M 183.92188,319.95312 C 183.35933,323.51567 183.07808,325.29692 183.07812,325.29688 C 183.07808,325.29692 183.2187,326.89067 183.5,330.07812 C 183.49995,330.54691 183.38276,331.39066 183.14844,332.60938 C 182.91401,333.82816 182.79683,334.71878 182.79688,335.28125 C 182.79683,336.40628 182.98433,337.25003 183.35938,337.8125 C 186.26557,337.06253 190.39057,335.89066 195.73438,334.29688 C 194.70306,332.98441 194.09369,331.29691 193.90625,329.23438 C 193.90619,329.23441 193.90619,327.40629 193.90625,323.75 L 193.90625,320.65625 C 193.90619,318.5938 193.53119,316.85943 192.78125,315.45312 C 189.96869,315.73443 187.01557,317.23442 183.92188,319.95312 L 183.92188,319.95312 z M 235.25,351.59375 C 241.43739,352.43751 248.28114,355.67189 255.78125,361.29688 C 263.93737,367.57812 268.01549,373.53124 268.01562,379.15625 C 268.01549,381.68749 266.42174,382.95311 263.23438,382.95312 C 259.67175,381.54686 256.71863,379.57811 254.375,377.04688 C 245.84364,367.95312 239.46864,359.46876 235.25,351.59375 L 235.25,351.59375 z M 230.60938,377.89062 L 229.34375,380.5625 L 227.09375,381.26562 L 223.57812,380.42188 L 216.26562,372.40625 C 214.67179,365.09375 211.90617,358.57813 207.96875,352.85938 L 208.53125,352.85938 C 211.06242,352.76564 214.29679,354.07814 218.23438,356.79688 C 223.01554,360.07813 226.08585,362.91407 227.44531,365.30469 C 228.80459,367.69531 229.85928,371.89062 230.60938,377.89062 L 230.60938,377.89062 z M 182.09375,354.82812 C 186.4062,357.45313 189.42963,360.03126 191.16406,362.5625 C 192.89838,365.09375 194.18744,368.79687 195.03125,373.67188 C 195.03119,373.85937 195.14838,374.39843 195.38281,375.28906 C 195.61713,376.17968 195.73431,376.81249 195.73438,377.1875 C 195.73431,378.21874 194.98431,379.24999 193.48438,380.28125 C 191.60932,381.40624 190.62494,382.10936 190.53125,382.39062 C 187.06245,380.70311 184.9062,378.17186 184.0625,374.79688 C 183.68745,373.20312 183.54683,369.82812 183.64062,364.67188 C 183.73433,360.35938 183.2187,357.07813 182.09375,354.82812 L 182.09375,354.82812 z M 164.375,355.53125 L 165.92188,356.79688 C 166.20309,357.45313 166.39059,358.85938 166.48438,361.01562 C 166.57809,363.17188 166.95309,364.625 167.60938,365.375 L 163.39062,379.29688 C 161.23435,379.85936 159.68747,381.31249 158.75,383.65625 L 154.95312,383.09375 C 153.17186,381.59374 152.28123,379.48436 152.28125,376.76562 C 152.28123,373.57812 152.84373,371.04687 153.96875,369.17188 C 155.37498,367.76562 157.3906,365.5625 160.01562,362.5625 C 160.9531,360.59376 162.40622,358.25001 164.375,355.53125 L 164.375,355.53125 z"
       transform="matrix(1.5926341,0,0,1.5926341,-130.09101,87.098416)"
       id="flowRoot2383"
       style="font-size:144px;font-style:normal;font-variant:normal;font-weight:normal;font-stretch:normal;text-align:start;line-height:125%;writing-mode:lr-tb;text-anchor:start;fill:#ffffff;fill-opacity:1;stroke:none;stroke-width:1px;stroke-linecap:butt;stroke-linejoin:miter;stroke-opacity:1;font-family:HakusyuKaisyoKyokan;-inkscape-font-specification:HakusyuKaisyoKyokan" />
  </g>
</svg>
